<?xml version="1.0" encoding="utf-8"?>
<!-- Generator: Adobe Illustrator 22.1.0, SVG Export Plug-In . SVG Version: 6.00 Build 0)  -->
<svg version="1.1" id="Layer_1" xmlns="http://www.w3.org/2000/svg" xmlns:xlink="http://www.w3.org/1999/xlink" x="0px" y="0px"
	 viewBox="0 0 964 745" style="enable-background:new 0 0 964 745;" xml:space="preserve">
<style type="text/css">
	.st0{fill:#333333;}
	.st1{fill:#FFFFFF;}
	.st2{fill:#9E005D;}
	.st3{fill:#C94B9C;}
	.st4{fill:#B8EA68;}
	.st5{fill:#8CC63F;}
	.st6{fill:#669BE8;}
	.st7{fill:#2A7FE2;}
	.st8{fill:#FBB03B;}
	.st9{fill:#F7C179;}
	.st10{fill:#00A99D;}
	.st11{fill:#4FD3C6;}
	.st12{fill:#93278F;}
	.st13{fill:#BC57BC;}
	.st14{fill:#F9B570;}
	.st15{fill:#FF8E39;}
	.st16{fill:#F15A24;}
</style>
<g>
	<g>
		<g>
			<g>
				<path class="st0" d="M61.7,660.4H33.5c-0.9,0-1.7-0.3-2.4-0.7c-0.7,0.5-1.5,0.7-2.4,0.7H12.9c-2.5,0-4.5-2-4.5-4.5v-53.1
					c0-4,2.8-6.8,6.7-6.8h45.5c6.4,0,11.2,1.6,14.4,4.8c3.1,3.2,4.7,7.5,4.7,12.9v4.9c0,3.1-0.7,5.8-2.1,7.9
					c-0.1,0.1-0.2,0.2-0.2,0.4c0.4,0.5,0.8,1,1.1,1.5c1.6,2.3,2.4,5.1,2.4,8.4v4.9c0,5.8-1.5,10.4-4.5,13.7
					C73.3,658.7,68.4,660.4,61.7,660.4z M36.6,651.4h25.1c4,0,6.8-0.8,8-2.2c1.4-1.6,2.1-4.1,2.1-7.6v-4.9c0-1.4-0.3-2.5-0.8-3.3
					c-0.6-0.9-1.4-1.6-2.3-2.1c-1.4-0.7-2.4-2.1-2.5-3.7c-0.1-1.6,0.6-3.1,1.9-4c0.7-0.5,1.3-1.2,1.9-2.1c0.4-0.6,0.6-1.6,0.6-2.9
					v-4.9c0-3-0.7-5.2-2.1-6.6c-1.4-1.4-4.1-2.1-8-2.1H17.4v46.4h6.7v-6.8c0-0.3,0-0.6,0.1-0.8c-0.1-0.3-0.1-0.6-0.1-0.8v-10.4
					c0-2.4,1.9-4.3,4.2-4.5c-2.3-0.2-4.2-2.1-4.2-4.5v-9.4c0-3.4,2.4-5.8,5.8-5.8h25c2.9,0,5.2,0.8,6.8,2.3c1.6,1.6,2.4,3.8,2.4,6.8
					v1.7c0,2.9-0.8,5.2-2.5,6.7c-1.4,1.3-3.4,2-5.9,2.2h0.1c2.8,0,5,0.8,6.5,2.5c1.3,1.5,2,3.6,2,6.4v1.6c0,2.8-0.7,5-2.2,6.5
					c-1,1.1-3,2.4-6.3,2.4H35L36.6,651.4z M33.1,638.4h22.2V637H33.1V638.4z M33.1,619h21.8c0.1,0,0.2,0,0.2,0v-1.6c0,0,0,0,0-0.1
					c-0.1,0-0.1,0-0.2,0H33.1V619z"/>
			</g>
			<g>
				<path class="st1" d="M70.8,627.3c1.2-0.8,2.2-1.9,3.1-3.3c0.9-1.4,1.4-3.2,1.4-5.4v-4.9c0-4.2-1.1-7.5-3.4-9.8s-6-3.5-11.2-3.5
					H15.1c-1.5,0-2.2,0.8-2.2,2.3v53.1h15.7v-11.3h0.5l4.3,11.3h28.2c5.4,0,9.2-1.2,11.4-3.7c2.2-2.4,3.3-6,3.3-10.7v-4.9
					c0-2.3-0.5-4.3-1.6-5.9C73.7,629.3,72.4,628.1,70.8,627.3z M28.6,614.1c0-0.9,0.4-1.3,1.3-1.3h25c1.7,0,2.9,0.3,3.7,1
					c0.7,0.7,1.1,1.9,1.1,3.5v1.7c0,1.6-0.4,2.8-1.1,3.4c-0.7,0.7-1.9,1-3.7,1H28.6V614.1z M59.8,638.4c0,1.6-0.3,2.8-1,3.4
					c-0.6,0.7-1.6,1-3,1H28.6v-10.4h27.2c1.5,0,2.5,0.3,3.1,1s0.9,1.8,0.9,3.4C59.8,636.8,59.8,638.4,59.8,638.4z"/>
			</g>
		</g>
		<g>
			<g>
				<path class="st0" d="M95.7,660.4H82c-2.5,0-4.5-2-4.5-4.5v-41.8c0-2.5,2-4.5,4.5-4.5h13.8c2.5,0,4.5,2,4.5,4.5v41.8
					C100.2,658.4,98.2,660.4,95.7,660.4z M86.5,651.4h4.8v-32.8h-4.8V651.4z"/>
			</g>
			<g>
				<rect x="82" y="614.1" class="st1" width="13.8" height="41.8"/>
			</g>
		</g>
		<g>
			<g>
				<path class="st0" d="M95.7,612.1H82c-2.5,0-4.5-2-4.5-4.5v-11c0-2.5,2-4.5,4.5-4.5h13.8c2.5,0,4.5,2,4.5,4.5v11
					C100.2,610,98.2,612.1,95.7,612.1z M86.5,603.1h4.8v-2h-4.8V603.1z"/>
			</g>
			<g>
				<rect x="82" y="596.5" class="st1" width="13.8" height="11"/>
			</g>
		</g>
		<g>
			<g>
				<path class="st0" d="M139.3,660.4h-20.1c-3.6,0-6.8-0.5-9.4-1.5c-2.8-1-5.2-2.5-7-4.5c-1.9-2-3.2-4.3-4-7
					c-0.7-2.4-1.1-5.2-1.1-8.1v-8.6c0-2.9,0.4-5.6,1.1-8.1c0.8-2.7,2.2-5.1,4-7.1s4.2-3.5,7-4.5c2.6-1,5.8-1.5,9.4-1.5h20.1
					c3.6,0,6.8,0.5,9.4,1.4c2.8,1,5.2,2.5,7.1,4.5l0,0c1.9,2,3.2,4.3,4,7.1c0.7,2.5,1.1,5.2,1.1,8.1v8.6c0,3-0.4,5.7-1.1,8.1
					c-0.8,2.7-2.2,5.1-4,7c-1.9,2-4.2,3.5-7.1,4.5C146,659.9,142.9,660.4,139.3,660.4z M119.2,618.6c-2.6,0-4.7,0.3-6.3,0.9
					c-1.5,0.6-2.7,1.3-3.6,2.2s-1.5,2.1-1.9,3.4c-0.5,1.6-0.7,3.5-0.7,5.5v8.6c0,2.1,0.2,4,0.7,5.6c0.4,1.4,1,2.5,1.9,3.4
					s2.1,1.7,3.6,2.2c1.7,0.6,3.8,0.9,6.3,0.9h20.1c2.6,0,4.7-0.3,6.4-0.9c1.5-0.5,2.7-1.3,3.6-2.2c0.9-0.9,1.5-2,1.9-3.4
					c0.5-1.6,0.7-3.5,0.7-5.6v-8.6c0-2-0.2-3.9-0.7-5.5c-0.4-1.4-1-2.5-1.9-3.4s-2.1-1.7-3.6-2.2c-1.7-0.6-3.8-0.9-6.4-0.9H119.2z
					 M136.7,648.1h-15c-3.5,0-6-0.9-7.8-2.7c-1.7-1.7-2.5-4.4-2.5-8v-5.9c0-3.7,0.8-6.3,2.4-8.1c1.7-1.9,4.4-2.9,7.9-2.9h15
					c3.4,0,6,0.9,7.8,2.7s2.6,4.5,2.6,8.3v5.9c0,3.7-0.9,6.3-2.6,8.1C142.7,647.3,140.2,648.1,136.7,648.1z M120.7,639.5
					L120.7,639.5L120.7,639.5z M137.9,639.5L137.9,639.5L137.9,639.5z M120.6,639c0.3,0,0.6,0.1,1.2,0.1h15c0.6,0,1,0,1.2-0.1
					c0.1-0.3,0.1-0.8,0.1-1.6v-5.9c0-1-0.1-1.6-0.2-2c-0.2,0-0.6-0.1-1.2-0.1h-15c-0.5,0-0.9,0-1.1,0.1c-0.1,0.4-0.2,1-0.2,2v5.9
					C120.5,638.2,120.5,638.7,120.6,639z M138.4,638.9L138.4,638.9L138.4,638.9z"/>
			</g>
			<g>
				<path class="st1" d="M152.5,618.6c-1.4-1.4-3.1-2.6-5.3-3.3c-2.2-0.8-4.8-1.2-7.9-1.2h-20.1c-3.1,0-5.7,0.4-7.9,1.2
					c-2.2,0.8-3.9,1.9-5.3,3.3c-1.4,1.4-2.4,3.2-3,5.3s-0.9,4.3-0.9,6.8v8.6c0,2.5,0.3,4.8,0.9,6.8s1.6,3.8,3,5.2s3.1,2.6,5.3,3.3
					c2.2,0.8,4.8,1.2,7.9,1.2h20.1c3.1,0,5.7-0.4,7.9-1.2s4-1.9,5.3-3.3c1.4-1.4,2.4-3.2,3-5.2s0.9-4.3,0.9-6.8v-8.6
					c0-2.5-0.3-4.8-0.9-6.8C154.9,621.8,153.9,620.1,152.5,618.6z M142.6,637.5c0,2.4-0.4,4-1.3,4.9c-0.9,0.9-2.4,1.3-4.6,1.3h-15
					c-2.2,0-3.7-0.4-4.5-1.3c-0.8-0.9-1.3-2.5-1.3-4.9v-5.9c0-2.5,0.4-4.2,1.3-5.1c0.8-0.9,2.3-1.4,4.5-1.4h15
					c2.1,0,3.6,0.5,4.5,1.4s1.3,2.6,1.3,5.2v5.8H142.6z"/>
			</g>
		</g>
		<g>
			<g>
				<path class="st0" d="M197,660.4h-15.7c-2.5,0-4.5-2-4.5-4.5v-37.1h-18.5c-1.9,0-3.5-1.1-4.2-2.9l-5.1-13.2
					c-0.2-0.5-0.3-1.1-0.3-1.6v-0.6c0-2.5,2-4.5,4.5-4.5h73.4c3.9,0,6.7,2.8,6.7,6.8v14.4c0,1.9-1.2,3.6-2.9,4.2l-14.5,5.4
					c-0.5,0.2-1,0.3-1.6,0.3h-0.6c-2.5,0-4.5-2-4.5-4.5v-3.7h-7.7V656C201.5,658.4,199.5,660.4,197,660.4z M185.8,651.4h6.7v-37.1
					c0-2.5,2-4.5,4.5-4.5h15.9c3,0,5.3,2.3,5.3,5.3v1.1l6.1-2.3v-9h-64.8l1.9,4.9h19.9c2.5,0,4.5,2,4.5,4.5L185.8,651.4L185.8,651.4
					z"/>
			</g>
			<g>
				<path class="st1" d="M226.7,600.5h-73.4v0.6l5.1,13.2h23v41.6H197v-41.6h15.9c0.6,0,0.8,0.3,0.8,0.8v7.4h0.6l14.5-5.4v-14.4
					C228.9,601.2,228.2,600.5,226.7,600.5z"/>
			</g>
		</g>
		<g>
			<g>
				<path class="st0" d="M285.1,660.4h-13.8c-2.5,0-4.5-2-4.5-4.5v-24.3c0-1.1-0.1-1.7-0.2-1.9c-0.1-0.1-0.5-0.1-1.1-0.1h-13.2v26.3
					c0,2.5-2,4.5-4.5,4.5H234c-2.5,0-4.5-2-4.5-4.5v-59.4c0-2.5,2-4.5,4.5-4.5h13.8c2.5,0,4.5,2,4.5,4.5v13.1H268
					c3.6,0,6.8,0.5,9.4,1.4c2.9,1,5.2,2.6,7.1,4.5c1.8,1.9,3.1,4.3,3.9,7c0.7,2.4,1.1,5.2,1.1,8.1v25.2
					C289.6,658.4,287.6,660.4,285.1,660.4z M275.8,651.4h4.8v-20.7c0-2.1-0.2-4-0.7-5.6c-0.4-1.4-1-2.5-1.9-3.4l0,0
					c-0.9-0.9-2-1.6-3.5-2.2c-1.7-0.6-3.8-0.9-6.4-0.9H253l0.7,2h11.8c3.1,0,5.7,0.9,7.5,2.7c1.9,1.9,2.8,4.6,2.8,8.3L275.8,651.4
					L275.8,651.4z M238.4,651.4h4.8V619c0-0.9,0.3-1.7,0.7-2.4c-0.5-0.7-0.7-1.5-0.7-2.4V601h-4.8V651.4z M266.5,629.6L266.5,629.6
					L266.5,629.6z"/>
			</g>
			<g>
				<path class="st1" d="M281.2,618.6c-1.3-1.4-3.1-2.6-5.3-3.3c-2.2-0.8-4.8-1.2-7.9-1.2h-20.3v-17.6h-13.8v59.4h13.8V619h0.5
					l2.3,6.1h14.9c1.9,0,3.4,0.5,4.4,1.4c1,1,1.5,2.7,1.5,5.1v24.3h13.8v-25.2c0-2.5-0.3-4.8-0.9-6.8
					C283.6,621.8,282.6,620.1,281.2,618.6z"/>
			</g>
		</g>
		<g>
			<g>
				<path class="st0" d="M305.6,612.1h-13.8c-2.5,0-4.5-2-4.5-4.5v-11c0-2.5,2-4.5,4.5-4.5h13.8c2.5,0,4.5,2,4.5,4.5v11
					C310.1,610,308.1,612.1,305.6,612.1z M296.3,603.1h4.8v-2h-4.8V603.1z"/>
			</g>
			<g>
				<rect x="291.8" y="596.5" class="st1" width="13.8" height="11"/>
			</g>
		</g>
		<g>
			<g>
				<path class="st0" d="M305.6,660.4h-13.8c-2.5,0-4.5-2-4.5-4.5v-41.8c0-2.5,2-4.5,4.5-4.5h13.8c2.5,0,4.5,2,4.5,4.5v41.8
					C310.1,658.4,308.1,660.4,305.6,660.4z M296.3,651.4h4.8v-32.8h-4.8V651.4z"/>
			</g>
			<g>
				<rect x="291.8" y="614.1" class="st1" width="13.8" height="41.8"/>
			</g>
		</g>
		<g>
			<g>
				<path class="st0" d="M363.8,660.4H350c-2.5,0-4.5-2-4.5-4.5v-24.3c0-1-0.1-1.6-0.2-1.9c-0.2-0.1-0.6-0.1-1.2-0.1H331v26.3
					c0,2.5-2,4.5-4.5,4.5h-13.8c-2.5,0-4.5-2-4.5-4.5v-41.8c0-2.5,2-4.5,4.5-4.5h34.1c3.6,0,6.8,0.5,9.4,1.4c2.9,1,5.2,2.5,7.1,4.5
					l0,0c1.8,1.9,3.1,4.3,3.9,7c0.7,2.4,1.1,5.2,1.1,8.1v25.2C368.3,658.4,366.3,660.4,363.8,660.4z M354.6,651.4h4.8v-20.7
					c0-2.1-0.2-4-0.7-5.6c-0.4-1.4-1-2.5-1.9-3.4l0,0c-0.9-0.9-2-1.6-3.5-2.2c-1.7-0.6-3.8-0.9-6.4-0.9h-15.1l0.7,2h11.8
					c3.3,0,6,1,7.8,2.8c1.8,1.9,2.6,4.5,2.6,8.2L354.6,651.4L354.6,651.4z M317.2,651.4h4.8V619c0-0.1,0-0.2,0-0.4h-4.8V651.4z"/>
			</g>
			<g>
				<path class="st1" d="M360,618.6c-1.3-1.4-3.1-2.6-5.3-3.3c-2.2-0.8-4.8-1.2-7.9-1.2h-34.1v41.8h13.8V619h0.5l2.3,6.1h14.9
					c2.1,0,3.6,0.5,4.5,1.4c0.9,1,1.4,2.7,1.4,5.1v24.3h13.8v-25.2c0-2.5-0.3-4.8-0.9-6.8C362.3,621.8,361.3,620.1,360,618.6z"/>
			</g>
		</g>
		<g>
			<g>
				<path class="st0" d="M403.9,677.5h-32.3c-2.5,0-4.5-2-4.5-4.5v-11.6c0-2.5,2-4.5,4.5-4.5h12.2c-6-0.4-10.4-2-13.4-4.9
					c-3.5-3.4-5.2-8.3-5.2-14.7v-6.5c0-3,0.4-5.7,1.1-8.1c0.8-2.7,2.2-5.1,4-7s4.2-3.5,7-4.5c2.6-1,5.8-1.5,9.5-1.5h30.4
					c5,0,8.3,3.3,8.3,8.3v38.8c0,2.8-0.4,5.5-1.1,7.9c-0.8,2.7-2.1,5-3.9,6.9s-4.2,3.5-7,4.5C410.9,677,407.6,677.5,403.9,677.5z
					 M376.1,668.5h27.8c2.7,0,4.9-0.3,6.5-0.9c1.5-0.5,2.7-1.3,3.5-2.1c0.8-0.9,1.4-2,1.8-3.3c0.5-1.6,0.7-3.4,0.7-5.4v-38.1h-29.7
					c-2.6,0-4.8,0.3-6.4,0.9c-1.5,0.6-2.7,1.3-3.6,2.2s-1.5,2.1-1.9,3.4c-0.5,1.6-0.7,3.5-0.7,5.6v6.5c0,3.8,0.8,6.6,2.5,8.2
					c1.2,1.1,3.9,2.5,10.1,2.5h13.8l-0.8-2.1h-10.4c-3.4,0-5.9-0.8-7.7-2.5c-1.8-1.7-2.7-4.3-2.7-8v-3.9c0-3.7,0.9-6.4,2.6-8.2
					c1.8-1.8,4.4-2.8,7.8-2.8h16.4c3.4,0,5.8,2.4,5.8,5.8v24.6c0,0.3,0,0.5-0.1,0.8c0,0.2,0.1,0.5,0.1,0.8v3.3
					c0,3.1-0.8,5.5-2.3,7.2c-1.7,1.9-4.2,2.8-7.5,2.8H376v2.7H376.1z M402.5,657.2L402.5,657.2L402.5,657.2z M388.1,636.7
					c0.3,0,0.7,0.1,1.3,0.1h13.2v-7.3h-13.2c-0.6,0-1,0.1-1.3,0.1c-0.1,0.3-0.2,0.9-0.2,1.9v3.9C388,636,388,636.5,388.1,636.7z
					 M388.2,629.4L388.2,629.4L388.2,629.4z"/>
			</g>
			<g>
				<path class="st1" d="M417.2,614.1h-30.4c-3.1,0-5.8,0.4-8,1.2s-3.9,1.9-5.3,3.3c-1.4,1.4-2.4,3.2-3,5.2s-0.9,4.3-0.9,6.8v6.5
					c0,5.1,1.3,8.9,3.9,11.5c2.6,2.5,7,3.8,13.2,3.8H407v3.3c0,1.9-0.4,3.3-1.2,4.2c-0.8,0.9-2.2,1.3-4.1,1.3h-30.2V673h32.3
					c3.2,0,5.9-0.4,8.1-1.2s3.9-1.9,5.3-3.3c1.3-1.4,2.3-3.1,2.9-5.1s0.9-4.2,0.9-6.7v-38.8C421,615.4,419.7,614.1,417.2,614.1z
					 M407.1,650.9h-0.5l-3.7-9.6h-13.5c-2.2,0-3.7-0.4-4.6-1.3c-0.9-0.8-1.3-2.4-1.3-4.7v-3.9c0-2.4,0.5-4.1,1.4-5.1
					c0.9-0.9,2.4-1.4,4.6-1.4h16.4c0.9,0,1.3,0.4,1.3,1.3L407.1,650.9L407.1,650.9z"/>
			</g>
		</g>
		<g>
			<g>
				<path class="st0" d="M465.7,660.4h-38.4c-2.5,0-4.5-2-4.5-4.5v-11.7c0-2.5,2-4.5,4.5-4.5h1.5c-1.2-0.7-2.2-1.5-3.1-2.5
					c-2.3-2.6-3.4-5.9-3.4-9.9V624c0-4.2,1.3-7.7,3.8-10.3c2.6-2.7,6.4-4,11.5-4h37.7c3.8,0,6.4,2.6,6.4,6.4v9.4
					c0,1.9-1.2,3.6-2.9,4.2l-1.5,0.6c0.8,0.5,1.4,1.2,2,1.9c1.2,1.4,2,3.1,2.4,5c0.4,1.5,0.5,3.3,0.5,5.3v3.1
					c0,4.5-1.3,8.2-3.9,10.9C475.7,659,471.5,660.4,465.7,660.4z M431.9,651.4h33.9c4.4,0,5.8-1,6.1-1.4c0.9-1,1.4-2.5,1.4-4.6v-3.1
					c0-1.3-0.1-2.4-0.3-3.3c-0.1-0.5-0.3-0.9-0.5-1.2l0,0c-0.3-0.3-0.7-0.6-1.2-0.8s-1.4-0.5-3-0.6l-2.1-0.2c0.4,0.3,0.7,0.7,1,1
					c0.8,1.1,1.2,2.4,1.2,3.9v0.9c0,1.9-0.6,3.5-1.7,4.7c-1.2,1.3-2.9,1.9-5,1.9H432L431.9,651.4L431.9,651.4z M461.8,643.8
					L461.8,643.8L461.8,643.8z M437.6,618.6c-2.4,0-4.2,0.4-5,1.2c-0.3,0.3-1.3,1.3-1.3,4.1v3.3c0,1.8,0.4,3.1,1.2,3.9
					c0.9,1,2.7,1.4,4.1,1.5l2,0.2c-0.3-0.2-0.6-0.4-0.9-0.6c-1.2-1.1-1.8-2.7-1.8-4.7v-1.1c0-2.4,1-3.9,1.8-4.7
					c1.2-1.2,2.8-1.8,4.8-1.8h21.8c2.3,0,4.3,1.5,4.8,3.7l3.6-1.3v-3.6h-35.1V618.6z"/>
			</g>
			<g>
				<path class="st1" d="M475.8,634.9c-0.7-0.8-1.6-1.5-2.8-2c-1.2-0.5-2.6-0.8-4.4-1l-26.6-2.6c-0.6-0.1-1-0.3-1.3-0.5
					c-0.2-0.2-0.3-0.7-0.3-1.4v-1.1c0-0.7,0.2-1.2,0.5-1.5s0.8-0.5,1.6-0.5h21.8c0.4,0,0.5,0.2,0.5,0.6v4.8h0.5l11.9-4.4V616
					c0-1.3-0.6-1.9-1.9-1.9h-37.7c-3.8,0-6.5,0.9-8.2,2.6c-1.7,1.8-2.5,4.1-2.5,7.2v3.3c0,2.9,0.8,5.2,2.3,6.9s3.9,2.7,7.1,3l26,2.2
					c0.6,0.1,1,0.2,1.2,0.5s0.3,0.7,0.3,1.3v0.9c0,0.8-0.2,1.3-0.5,1.6s-0.9,0.5-1.7,0.5h-34.2v11.7h38.4c4.5,0,7.6-0.9,9.3-2.7
					c1.8-1.8,2.6-4.4,2.6-7.8v-3.1c0-1.6-0.1-3-0.4-4.3C477,636.8,476.5,635.7,475.8,634.9z"/>
			</g>
		</g>
		<g>
			<g>
				<path class="st0" d="M579.6,660.4h-61.3c-3.9,0-6.7-2.8-6.7-6.8v-50.8c0-4,2.8-6.8,6.7-6.8h59.5c4,0,6.8,2.8,6.8,6.8v14.4
					c0,1.9-1.2,3.6-2.9,4.2l-14.5,5.4c-0.5,0.2-1,0.3-1.6,0.3H565c-1.1,0-2-0.4-2.8-1v7.5c0,1.4-0.6,2.6-1.6,3.4h19
					c2.5,0,4.5,2,4.5,4.5v14.4C584.1,658.4,582.1,660.4,579.6,660.4z M520.6,651.4h54.5V646h-42.2c-3.2,0-5.6-2.4-5.6-5.6v-16.6
					c0-0.3,0-0.5,0.1-0.8c0-0.2-0.1-0.5-0.1-0.8v-6.9c0-1,0.3-2,0.7-2.9c0.9-1.7,2.7-2.7,4.7-2.7h31.4c3,0,5.3,2.3,5.3,5.3v1.1
					l6.1-2.3v-9h-55L520.6,651.4L520.6,651.4z M539.1,629.1h14.1v-2.3h-14.9L539.1,629.1z M577.8,605L577.8,605v-4.5V605z"/>
			</g>
			<g>
				<path class="st1" d="M577.8,600.5h-59.5c-1.5,0-2.2,0.8-2.2,2.3v50.8c0,1.5,0.7,2.3,2.2,2.3h61.3v-14.4h-46.7
					c-0.7,0-1.1-0.4-1.1-1.1v-16.6h0.5l3.7,9.7h21.7v-11.3h-25.9v-6.9c0-0.3,0.1-0.5,0.2-0.7c0.1-0.2,0.4-0.3,0.8-0.3h31.4
					c0.5,0,0.8,0.3,0.8,0.8v7.4h0.6l14.5-5.4v-14.4C580.1,601.2,579.4,600.5,577.8,600.5z"/>
			</g>
		</g>
		<g>
			<g>
				<path class="st0" d="M644.8,660.4h-16.6c-1.2,0-2.4-0.5-3.2-1.3L614.1,648L603,659.1c-0.8,0.8-2,1.3-3.2,1.3h-16.1
					c-2.5,0-4.5-2-4.5-4.5v-0.6c0-1.2,0.5-2.4,1.4-3.2l18.8-18l-16.8-16c-0.9-0.8-1.4-2-1.4-3.3v-0.6c0-2.5,2-4.5,4.5-4.5h16.5
					c1.2,0,2.4,0.5,3.2,1.3l9.3,9.4l10.2-9.6c0.8-0.8,1.9-1.2,3.1-1.2h15.8c2.5,0,4.5,2,4.5,4.5v0.6c0,1.3-0.5,2.4-1.4,3.3l-17.2,16
					l18.3,18.1c0.9,0.8,1.3,2,1.3,3.2v0.6C649.3,658.4,647.3,660.4,644.8,660.4z M630.1,651.4h4.4L620,637.1c-0.9-0.9-1.4-2-1.3-3.3
					c0-1.2,0.5-2.4,1.4-3.2l12.9-12h-3.2l-12.1,11.3c-1.8,1.7-4.6,1.6-6.3-0.1l-11.1-11.2h-4l12.7,12.1c0.9,0.8,1.4,2,1.4,3.3
					c0,1.2-0.5,2.4-1.4,3.3l-14.8,14.2h3.7l13-13c0.8-0.8,2-1.3,3.2-1.3s2.3,0.5,3.2,1.3L630.1,651.4z"/>
			</g>
			<g>
				<polygon class="st1" points="643.8,614.7 643.8,614.1 628,614.1 614.6,626.7 602.2,614.1 585.7,614.1 585.7,614.7 605.9,634 
					583.7,655.3 583.7,655.9 599.8,655.9 614.1,641.6 628.2,655.9 644.8,655.9 644.8,655.3 623.1,633.9 				"/>
			</g>
		</g>
		<g>
			<g>
				<path class="st0" d="M663.2,677.5h-13.8c-2.5,0-4.5-2-4.5-4.5v-54.5c0-5.4,3.4-8.9,8.5-8.9h30.1c3.6,0,6.8,0.5,9.4,1.4
					c2.9,1,5.2,2.5,7.1,4.5l0,0c1.8,2,3.1,4.3,4,7c0.7,2.5,1.1,5.2,1.1,8.1v8.6c0,3-0.4,5.7-1.1,8.1c-0.8,2.7-2.1,5-3.9,7
					c-1.8,2-4.2,3.5-7.1,4.5c-2.7,1-5.8,1.4-9.4,1.4h-15.5c-0.1,0-0.1,0-0.2,0V673C667.7,675.5,665.6,677.5,663.2,677.5z
					 M653.8,668.5h4.8v-23.3c0-0.2,0-0.4,0-0.6c-0.1-0.3-0.1-0.7-0.1-1v-17c0-4,2.9-6,5.7-6h16.5c3.5,0,6.1,1,7.9,2.9
					c1.7,1.8,2.5,4.5,2.5,8.2v5.9c0,3.7-0.9,6.3-2.6,8.1c-1.8,1.8-4.3,2.6-7.7,2.6h-11.2l1.3,3.3h12.5c2.6,0,4.7-0.3,6.4-0.9
					c1.5-0.5,2.7-1.3,3.5-2.2c0.9-0.9,1.5-2.1,1.9-3.4c0.5-1.6,0.7-3.5,0.7-5.6v-8.6c0-2-0.2-3.9-0.7-5.5c-0.4-1.4-1-2.5-1.9-3.5
					l0,0c-0.9-0.9-2-1.6-3.5-2.2c-1.7-0.6-3.8-0.9-6.4-0.9h-29.6L653.8,668.5L653.8,668.5z M681.9,639.5L681.9,639.5L681.9,639.5z
					 M667.6,639.1h13.2c0.6,0,1,0,1.2-0.1c0.1-0.3,0.1-0.8,0.1-1.6v-5.9c0-1-0.1-1.6-0.2-2c-0.2,0-0.6-0.1-1.2-0.1h-13.2v9.7H667.6z
					"/>
			</g>
			<g>
				<path class="st1" d="M696.6,618.6c-1.3-1.4-3.1-2.6-5.3-3.3c-2.2-0.8-4.8-1.2-7.9-1.2h-30.1c-2.7,0-4,1.5-4,4.4V673h13.8v-27.8
					h0.5l4.2,10.7h15.5c3.1,0,5.7-0.4,7.9-1.2s3.9-1.9,5.3-3.3c1.3-1.4,2.3-3.2,2.9-5.2c0.6-2,0.9-4.3,0.9-6.8v-8.6
					c0-2.5-0.3-4.8-0.9-6.8S697.9,620.1,696.6,618.6z M686.7,637.5c0,2.4-0.4,4-1.3,4.9c-0.9,0.9-2.4,1.3-4.6,1.3h-17.7v-17
					c0-1,0.4-1.5,1.2-1.5h16.5c2.2,0,3.7,0.5,4.6,1.4c0.9,0.9,1.3,2.7,1.3,5.1V637.5z"/>
			</g>
		</g>
		<g>
			<g>
				<path class="st0" d="M720.6,660.4h-13.8c-2.5,0-4.5-2-4.5-4.5v-59.4c0-2.5,2-4.5,4.5-4.5h13.8c2.5,0,4.5,2,4.5,4.5v59.4
					C725.1,658.4,723.1,660.4,720.6,660.4z M711.3,651.4h4.8V601h-4.8V651.4z"/>
			</g>
			<g>
				<rect x="706.8" y="596.5" class="st1" width="13.8" height="59.4"/>
			</g>
		</g>
		<g>
			<g>
				<path class="st0" d="M764.1,660.4H744c-3.6,0-6.8-0.5-9.4-1.5c-2.8-1-5.2-2.5-7-4.5c-1.9-2-3.2-4.3-4-7
					c-0.7-2.4-1.1-5.2-1.1-8.1v-8.6c0-2.9,0.4-5.6,1.1-8.1c0.8-2.7,2.2-5.1,4-7.1c1.9-2,4.2-3.5,7-4.5c2.6-1,5.8-1.5,9.4-1.5h20.1
					c3.6,0,6.8,0.5,9.4,1.4c2.8,1,5.2,2.5,7.1,4.5l0,0c1.9,2,3.2,4.3,4,7.1c0.7,2.5,1.1,5.2,1.1,8.1v8.6c0,3-0.4,5.7-1.1,8.1
					c-0.8,2.7-2.2,5.1-4,7c-1.9,2-4.2,3.5-7.1,4.5C770.9,659.9,767.8,660.4,764.1,660.4z M744.1,618.6c-2.6,0-4.7,0.3-6.3,0.9
					c-1.5,0.6-2.7,1.3-3.6,2.2c-0.9,0.9-1.5,2.1-1.9,3.4c-0.5,1.6-0.7,3.5-0.7,5.5v8.6c0,2.1,0.2,4,0.7,5.6c0.4,1.4,1,2.5,1.9,3.4
					s2.1,1.7,3.6,2.2c1.7,0.6,3.8,0.9,6.3,0.9h20.1c2.6,0,4.7-0.3,6.4-0.9c1.5-0.5,2.7-1.3,3.6-2.2c0.9-0.9,1.5-2,1.9-3.4
					c0.5-1.6,0.7-3.5,0.7-5.6v-8.6c0-2-0.2-3.9-0.7-5.5c-0.4-1.4-1-2.5-1.9-3.4s-2.1-1.7-3.6-2.2c-1.7-0.6-3.8-0.9-6.4-0.9H744.1z
					 M761.6,648.1h-15c-3.5,0-6-0.9-7.8-2.7c-1.7-1.7-2.5-4.4-2.5-8v-5.9c0-3.7,0.8-6.3,2.4-8.1c1.7-1.9,4.4-2.9,7.9-2.9h15
					c3.4,0,6,0.9,7.8,2.7s2.6,4.5,2.6,8.3v5.9c0,3.7-0.9,6.3-2.6,8.1C767.6,647.3,765.1,648.1,761.6,648.1z M745.6,639.5
					L745.6,639.5L745.6,639.5z M762.8,639.5L762.8,639.5L762.8,639.5z M745.5,639c0.3,0,0.6,0.1,1.2,0.1h15c0.6,0,1,0,1.2-0.1
					c0.1-0.3,0.1-0.8,0.1-1.6v-5.9c0-1-0.1-1.6-0.2-2c-0.2,0-0.6-0.1-1.2-0.1h-15c-0.5,0-0.9,0-1.1,0.1c-0.1,0.4-0.2,1-0.2,2v5.9
					C745.4,638.2,745.4,638.7,745.5,639z M763.3,638.9L763.3,638.9L763.3,638.9z M745.1,629.7L745.1,629.7L745.1,629.7z"/>
			</g>
			<g>
				<path class="st1" d="M777.4,618.6c-1.4-1.4-3.1-2.6-5.3-3.3c-2.2-0.8-4.8-1.2-7.9-1.2h-20.1c-3.1,0-5.7,0.4-7.9,1.2
					s-3.9,1.9-5.3,3.3c-1.4,1.4-2.4,3.2-3,5.3s-0.9,4.3-0.9,6.8v8.6c0,2.5,0.3,4.8,0.9,6.8c0.6,2,1.6,3.8,3,5.2s3.1,2.6,5.3,3.3
					c2.2,0.8,4.8,1.2,7.9,1.2h20.1c3.1,0,5.7-0.4,7.9-1.2s4-1.9,5.3-3.3c1.4-1.4,2.4-3.2,3-5.2s0.9-4.3,0.9-6.8v-8.6
					c0-2.5-0.3-4.8-0.9-6.8S778.8,620.1,777.4,618.6z M767.5,637.5c0,2.4-0.4,4-1.3,4.9c-0.9,0.9-2.4,1.3-4.6,1.3h-15
					c-2.2,0-3.7-0.4-4.5-1.3c-0.8-0.9-1.3-2.5-1.3-4.9v-5.9c0-2.5,0.4-4.2,1.3-5.1c0.8-0.9,2.3-1.4,4.5-1.4h15
					c2.1,0,3.6,0.5,4.5,1.4s1.3,2.6,1.3,5.2L767.5,637.5L767.5,637.5z"/>
			</g>
		</g>
		<g>
			<g>
				<path class="st0" d="M801.2,660.4h-13.8c-2.5,0-4.5-2-4.5-4.5v-30.1c0-4.7,1.3-8.5,3.9-11.5c2.7-3.1,6.9-4.7,12.3-4.7H833
					c3.8,0,6.5,2.7,6.5,6.6V627c0,1.9-1.2,3.5-2.9,4.2l-12.2,4.6c-0.5,0.2-1.1,0.3-1.6,0.3h-0.6c-2.5,0-4.5-2-4.5-4.5v-2h-11.9v26.3
					C805.7,658.4,803.7,660.4,801.2,660.4z M791.9,651.4h4.8v-22.6c0-2.5,0.6-4.5,1.9-5.9c1-1.1,2.8-2.3,5.9-2.3h16.8
					c2.8,0,5,2,5.2,4.8l3.8-1.5v-5.3H799c-2.7,0-4.5,0.6-5.5,1.6c-1.1,1.3-1.7,3.1-1.7,5.6L791.9,651.4L791.9,651.4z"/>
			</g>
			<g>
				<path class="st1" d="M832.9,614.1H799c-4.1,0-7,1.1-8.9,3.2c-1.9,2.1-2.8,5-2.8,8.5v30.1h13.8v-27.1c0-1.4,0.3-2.3,0.8-2.9
					c0.5-0.6,1.4-0.8,2.6-0.8h16.8c0.5,0,0.8,0.3,0.8,0.8v5.7h0.6l12.2-4.6v-10.8C834.9,614.8,834.3,614.1,832.9,614.1z"/>
			</g>
		</g>
		<g>
			<g>
				<path class="st0" d="M888.2,660.4h-32.3c-3.6,0-6.8-0.5-9.4-1.5c-2.8-1-5.2-2.5-7-4.5c-1.9-2-3.2-4.3-4-7
					c-0.7-2.4-1.1-5.2-1.1-8.1v-8.6c0-3,0.4-5.7,1.1-8.1c0.8-2.7,2.2-5.1,4-7c1.9-2,4.2-3.5,7-4.5c2.6-1,5.8-1.5,9.4-1.5H880
					c4.6,0,8.1,1.4,10.3,4.1c2.1,2.5,3.1,6,3.1,10.6v4c0,4.1-1,7.5-3,10.1c-0.5,0.6-1.1,1.3-1.8,1.9c2.3,0.2,4.1,2.1,4.1,4.5v11.1
					C892.7,658.4,890.7,660.4,888.2,660.4z M855.9,618.6c-2.6,0-4.7,0.3-6.3,0.9c-1.5,0.5-2.7,1.3-3.6,2.2c-0.9,0.9-1.5,2.1-1.9,3.4
					c-0.5,1.6-0.7,3.5-0.7,5.6v8.6c0,2.1,0.2,4,0.7,5.6c0.4,1.4,1,2.5,1.9,3.4s2.1,1.7,3.6,2.2c1.7,0.6,3.8,0.9,6.3,0.9h27.8v-2.1
					h-25.3c-3.6,0-6.2-0.9-7.9-2.8c-1.6-1.8-2.4-4.4-2.4-7.9v-6.5c0-0.4,0-0.7,0.1-1c-0.1-0.3-0.1-0.7-0.1-1v-0.2
					c0-3.5,0.8-6.1,2.6-7.9c1.7-1.8,4.3-2.7,7.7-2.7h15.2c2.5,0,4,0.9,4.8,1.7c0.9,0.9,2,2.4,2,5.1v1.5c0,3-1.5,5.4-4,6.4h3.4
					c1.2,0,2.7-0.2,3.3-0.9c0.8-1,1.2-2.6,1.2-4.7v-4c0-3.3-0.7-4.5-1-4.9c-0.4-0.5-1.7-0.8-3.4-0.8L855.9,618.6L855.9,618.6z"/>
			</g>
			<g>
				<path class="st1" d="M880,614.1h-24.1c-3.1,0-5.7,0.4-7.9,1.2s-3.9,1.9-5.3,3.3c-1.4,1.4-2.4,3.2-3,5.2s-0.9,4.3-0.9,6.8v8.6
					c0,2.5,0.3,4.8,0.9,6.8c0.6,2,1.6,3.8,3,5.2s3.1,2.6,5.3,3.3c2.2,0.8,4.8,1.2,7.9,1.2h32.3v-11.1h-29.8c-2.2,0-3.8-0.4-4.6-1.3
					c-0.8-0.9-1.2-2.5-1.2-4.9v-6.5h0.5l2.4,6.4H880c3.2,0,5.5-0.9,6.9-2.7s2.1-4.3,2.1-7.4v-4c0-3.5-0.7-6.1-2.1-7.7
					C885.5,614.9,883.2,614.1,880,614.1z M876,627.6c0,1.6-0.8,2.4-2.4,2.4h-21v-0.2c0-2.3,0.4-3.9,1.3-4.8s2.4-1.3,4.5-1.3h15.2
					c0.8,0,1.4,0.2,1.8,0.5c0.4,0.4,0.6,1,0.6,1.8L876,627.6L876,627.6z"/>
			</g>
		</g>
		<g>
			<g>
				<path class="st0" d="M908.3,660.4h-13.8c-2.5,0-4.5-2-4.5-4.5v-30.1c0-4.7,1.3-8.5,3.9-11.5c2.7-3.1,6.9-4.7,12.3-4.7H940
					c3.8,0,6.5,2.7,6.5,6.6V627c0,1.9-1.2,3.5-2.9,4.2l-12.2,4.6c-0.5,0.2-1.1,0.3-1.6,0.3h-0.6c-2.5,0-4.5-2-4.5-4.5v-2h-11.9v26.3
					C912.8,658.4,910.8,660.4,908.3,660.4z M899,651.4h4.8v-22.6c0-2.5,0.6-4.5,1.9-5.9c1.4-1.5,3.4-2.3,5.9-2.3h16.8
					c2.8,0,5,2,5.2,4.8l3.8-1.5v-5.3h-31.3c-2.7,0-4.5,0.6-5.5,1.6c-1.1,1.3-1.7,3.1-1.7,5.6L899,651.4L899,651.4z"/>
			</g>
			<g>
				<path class="st1" d="M940,614.1h-33.9c-4.1,0-7,1.1-8.9,3.2c-1.9,2.1-2.8,5-2.8,8.5v30.1h13.8v-27.1c0-1.4,0.3-2.3,0.8-2.9
					c0.5-0.6,1.4-0.8,2.6-0.8h16.8c0.5,0,0.8,0.3,0.8,0.8v5.7h0.6L942,627v-10.8C942,614.8,941.3,614.1,940,614.1z"/>
			</g>
		</g>
		<g>
			<path class="st1" d="M693.6,186.8c-0.1-0.3-0.2-0.6-0.3-0.8v-0.1c-0.2-0.4-0.5-0.7-0.9-1c-0.1-0.1-0.2-0.1-0.3-0.2
				c-0.1-0.1-0.2-0.2-0.2-0.2L478.5,61.3c-0.1,0-0.2-0.1-0.3-0.1c-0.1,0-0.2-0.1-0.3-0.1c-0.8-0.3-1.8-0.3-2.6,0
				c-0.1,0-0.2,0.1-0.3,0.1c-0.1,0-0.2,0.1-0.3,0.1L261.3,184.4c-0.1,0-0.2,0.1-0.2,0.2c-0.1,0.1-0.2,0.1-0.3,0.2
				c-0.3,0.3-0.6,0.6-0.9,1c-0.2,0.4-0.3,0.8-0.4,1.3c0,0.1,0,0.2,0,0.3s0,0.2,0,0.3V434c0,0.1,0,0.2,0,0.3c0,0.1,0,0.2,0,0.3
				c0.1,0.4,0.2,0.9,0.4,1.3l0,0c0.2,0.3,0.3,0.6,0.6,0.8c0.2,0.1,0.3,0.2,0.5,0.3c0.1,0.1,0.2,0.2,0.3,0.3l213.3,123.1
				c0.1,0.1,0.2,0.1,0.3,0.1c0.1,0.1,0.2,0.1,0.3,0.2c0.4,0.2,0.8,0.3,1.3,0.3s0.9-0.1,1.3-0.3c0.1,0,0.2-0.1,0.3-0.2
				c0.1,0,0.2,0,0.3-0.1l213.3-123.1c0.1-0.1,0.2-0.2,0.3-0.3c0.2-0.1,0.3-0.2,0.5-0.3c0.2-0.2,0.4-0.5,0.6-0.8l0,0
				c0.2-0.4,0.3-0.8,0.4-1.3c0-0.1,0-0.2,0-0.3c0-0.1,0-0.2,0-0.3V187.7c0,0,0,0,0-0.1C693.7,187.4,693.6,187.1,693.6,186.8z
				 M267,194.3l51.1,29.5v174.1L267,427.5V194.3z M472.7,550.6L270.8,434.1l51.1-29.5l150.8,87.1V550.6z M472.7,482.8l-143.2-82.6
				l44.3-25.6l98.9,57.1L472.7,482.8L472.7,482.8z M325.8,393.5V228.2l44.3,25.6V368L325.8,393.5z M472.7,190.1l-98.9,57.1
				l-44.3-25.6L472.7,139V190.1z M472.7,130.2l-150.8,87l-51.1-29.5L472.7,71.1V130.2z M480.4,71.1l201.9,116.6l-51.1,29.5
				l-150.8-87L480.4,71.1L480.4,71.1z M480.4,139l143.2,82.6l-44.3,25.6l-98.9-57.1V139z M627.3,228.2v165.3L583.1,368V253.8
				L627.3,228.2z M480.4,431.7l98.9-57.1l44.3,25.6l-143.2,82.6L480.4,431.7L480.4,431.7z M480.4,550.6v-59l150.8-87.1l51.1,29.5
				L480.4,550.6z M686.1,427.5L635,398V223.9l51.1-29.5V427.5z"/>
		</g>
		<g>
			<polygon class="st2" points="627.3,228.2 627.3,393.5 583.1,368 583.1,253.8 			"/>
			<path class="st1" d="M627.8,394.4l-45.3-26.1V253.5l45.3-26.1V394.4z M583.6,367.7l43.3,25V229.1l-43.3,25V367.7z"/>
		</g>
		<g>
			<polygon class="st3" points="686.1,194.3 686.1,427.5 634.9,397.9 634.9,223.9 			"/>
			<path class="st1" d="M686.6,428.3l-52.1-30.1V223.6l52.1-30.1V428.3z M635.4,397.7l50.1,29V195.2l-50.1,29V397.7z"/>
		</g>
		<g>
			<polygon class="st4" points="682.3,434.1 480.4,550.6 480.4,491.6 631.1,404.5 			"/>
			<path class="st1" d="M479.9,551.5v-60.2l0.2-0.1l151-87.2l52.1,30.1l-0.8,0.4L479.9,551.5z M480.9,491.9v57.9l200.4-115.7
				l-50.1-29L480.9,491.9z"/>
		</g>
		<g>
			<polygon class="st5" points="623.5,400.1 480.4,482.8 480.4,431.7 579.3,374.6 			"/>
			<path class="st1" d="M479.9,483.7v-52.3l0.2-0.1l99.1-57.3l45.3,26.1l-0.8,0.4L479.9,483.7z M480.9,432v49.9l141.7-81.8l-43.3-25
				L480.9,432z"/>
		</g>
		<g>
			<polygon class="st6" points="472.7,491.6 472.7,550.6 270.8,434.1 322,404.5 			"/>
			<path class="st1" d="M473.2,551.5l-0.8-0.4l-202.7-117l52.1-30.1l0.2,0.1l151,87.2v60.2H473.2z M271.8,434.1l200.4,115.7v-57.9
				L322,405.1L271.8,434.1z"/>
		</g>
		<g>
			<polygon class="st7" points="472.7,431.7 472.7,482.8 329.6,400.1 373.9,374.6 			"/>
			<path class="st1" d="M473.2,483.7l-0.8-0.4l-143.9-83.1l45.3-26.1l0.2,0.1l99.1,57.3L473.2,483.7L473.2,483.7z M330.6,400.1
				l141.7,81.8V432l-98.4-56.8L330.6,400.1z"/>
		</g>
		<g>
			<polygon class="st8" points="370,253.8 370,368 325.8,393.5 325.8,228.2 			"/>
			<path class="st1" d="M325.3,394.4v-167l45.3,26.1v114.8L325.3,394.4z M326.3,229.1v163.6l43.3-25V254.1L326.3,229.1z"/>
		</g>
		<g>
			<polygon class="st9" points="318.2,223.9 318.2,397.9 267,427.5 267,194.3 			"/>
			<path class="st1" d="M266.5,428.3V193.5l52.1,30.1v174.7l-0.2,0.1L266.5,428.3z M267.5,195.2v231.4l50.1-29V224.1L267.5,195.2z"
				/>
		</g>
		<g>
			<polygon class="st10" points="623.5,221.6 579.3,247.2 480.4,190.1 480.4,139 			"/>
			<path class="st1" d="M579.3,247.8l-0.2-0.1L480,190.4v-52.3l144.7,83.5L579.3,247.8z M480.9,189.8l98.4,56.8l43.3-25l-141.7-81.8
				L480.9,189.8L480.9,189.8z"/>
		</g>
		<g>
			<polygon class="st11" points="682.3,187.7 631.1,217.2 480.4,130.2 480.4,71.1 			"/>
			<path class="st1" d="M631.1,217.8l-0.2-0.1l-151-87.2V70.3l203.4,117.5L631.1,217.8z M480.9,129.9l150.3,86.7l50.1-28.9L480.9,72
				V129.9z"/>
		</g>
		<g>
			<polygon class="st12" points="472.7,139 472.7,190.1 373.9,247.2 329.6,221.6 			"/>
			<path class="st1" d="M373.9,247.8l-45.3-26.1l0.7-0.4l143.9-83.1v52.3l-0.2,0.1L373.9,247.8z M330.6,221.6l43.3,25l98.4-56.8
				v-49.9L330.6,221.6z"/>
		</g>
		<g>
			<polygon class="st13" points="472.7,71.1 472.7,130.2 322,217.2 270.8,187.7 			"/>
			<path class="st1" d="M322,217.8l-52.1-30.1l0.8-0.4l202.7-117v60.2l-0.2,0.1L322,217.8z M271.8,187.7l50.1,28.9l150.3-86.7V72
				L271.8,187.7z"/>
		</g>
	</g>
	<g>
		<g>
			<polygon class="st14" points="477.7,310.9 580.4,251.6 580.4,370.2 477.7,429.5 			"/>
			<path class="st1" d="M474.2,435.6V308.9l109.7-63.3v126.7L474.2,435.6z M481.2,312.9v110.5l95.7-55.3V257.7L481.2,312.9z"/>
		</g>
		<g>
			<polygon class="st15" points="477.7,310.9 580.4,251.6 477.7,192.3 375,251.6 			"/>
			<path class="st1" d="M477.7,315L368,251.6l109.7-63.3l109.7,63.3L477.7,315z M382,251.6l95.7,55.3l95.7-55.3l-95.7-55.3
				L382,251.6z"/>
		</g>
		<g>
			<polygon class="st16" points="375,251.6 477.7,310.9 477.7,429.5 375,370.2 			"/>
			<path class="st1" d="M481.2,435.6l-109.7-63.3V245.6l109.7,63.3V435.6z M378.5,368.2l95.7,55.3V312.9l-95.7-55.3V368.2z"/>
		</g>
		<g>
			<path class="st1" d="M477.7,430.5c-0.2,0-0.3,0-0.5-0.1l-102.7-59.3c-0.3-0.2-0.5-0.5-0.5-0.9V251.6c0-0.4,0.2-0.7,0.5-0.9
				l102.7-59.3c0.3-0.2,0.7-0.2,1,0l102.7,59.3c0.3,0.2,0.5,0.5,0.5,0.9v118.6c0,0.4-0.2,0.7-0.5,0.9l-102.7,59.3
				C478,430.5,477.9,430.5,477.7,430.5z M376,369.6l101.7,58.7l101.7-58.7V252.2l-101.7-58.7L376,252.2V369.6z"/>
		</g>
		<g>
			<path class="st1" d="M477.7,430.5c-0.6,0-1-0.4-1-1v-118l-102.2-59c-0.5-0.3-0.6-0.9-0.4-1.4c0.3-0.5,0.9-0.6,1.4-0.4l102.2,59
				l102.2-59c0.5-0.3,1.1-0.1,1.4,0.4c0.1,0.2,0.1,0.3,0.1,0.5c0,0.3-0.2,0.7-0.5,0.9l-102.2,59v118
				C478.7,430.1,478.2,430.5,477.7,430.5z"/>
		</g>
	</g>
</g>
</svg>
