<?xml version="1.0" encoding="utf-8"?>
<!-- Generator: Adobe Illustrator 27.2.0, SVG Export Plug-In . SVG Version: 6.00 Build 0)  -->
<svg version="1.1" id="Layer_1" xmlns="http://www.w3.org/2000/svg" xmlns:xlink="http://www.w3.org/1999/xlink" x="0px" y="0px"
	 viewBox="0 0 1920 1080" style="enable-background:new 0 0 1920 1080;" xml:space="preserve">
<style type="text/css">
	.st0{fill:none;stroke:#919191;stroke-width:2;stroke-miterlimit:10;}
	.st1{fill:#9E005D;}
	.st2{fill:#8CC63F;}
	.st3{fill:#00A99D;}
	.st4{fill:#B8EA68;}
	.st5{fill:#C94B9C;}
	.st6{fill:#93278F;}
	.st7{fill:#2A7FE2;}
	.st8{fill:#FBB03B;}
</style>
<g>
	<line class="st0" x1="273.8" y1="882.8" x2="507.2" y2="867.3"/>
</g>
<line class="st0" x1="737.8" y1="555.7" x2="507.2" y2="867.3"/>
<line class="st0" x1="754.2" y1="679.2" x2="507.2" y2="867.3"/>
<line class="st0" x1="1094.3" y1="737.8" x2="772.9" y2="553.4"/>
<line class="st0" x1="790.6" y1="670" x2="1089.8" y2="749.5"/>
<line class="st0" x1="1369.2" y1="810.4" x2="1139.6" y2="758.5"/>
<line class="st0" x1="1608.4" y1="614.9" x2="1369.2" y2="810.4"/>
<line class="st0" x1="1508.6" y1="307.1" x2="1608.3" y2="574.8"/>
<line class="st0" x1="1784.4" y1="187.4" x2="1638.5" y2="584.9"/>
<circle class="st1" cx="1369.2" cy="810.4" r="21"/>
<circle class="st2" cx="1508.6" cy="307.1" r="30.3"/>
<circle class="st3" cx="1784.4" cy="187.4" r="40.9"/>
<circle class="st4" cx="273.8" cy="882.8" r="37.9"/>
<circle class="st5" cx="507.2" cy="867.3" r="37.8"/>
<g>
	<path class="st6" d="M763.8,668.6c-1.3,0-2.4,1.1-2.4,2.4c0,1.3,1,2.4,2.4,2.4c1.3,0,2.4-1.1,2.4-2.4
		C766.2,669.7,765.1,668.6,763.8,668.6z"/>
	<path class="st6" d="M772.9,661.2c0-1.9-1.5-3.4-3.3-3.4c-1.8,0-3.3,1.5-3.3,3.3c0,1.8,1.5,3.3,3.3,3.4
		C771.4,664.6,772.9,663.1,772.9,661.2z"/>
	<path class="st6" d="M770.5,637.1c-16.6,0-30,13.4-30,30c0,16.6,13.4,30,30,30c16.6,0,30-13.4,30-30
		C800.5,650.5,787,637.1,770.5,637.1z M790.6,667.9c0.6,0.6,0.6,1.5,0,2c-0.6,0.6-1.5,0.6-2.1,0c-0.1-0.1-0.3-0.3-0.4-0.4
		c-1.2-1.2-1.2-1.2-2.9-1c-0.3,2.9-1.4,5.6-3.3,8c0.4,0.4,0.7,0.7,1.1,1c0.1,0.1,0.3,0.1,0.4,0.1c0.6,0,1.1,0,1.7,0
		c0.9,0,1.5,0.6,1.5,1.4c0,0.8-0.6,1.4-1.5,1.4c-0.4,0-0.7,0-1.2,0c0,0.4,0,0.8,0,1.2c0,0.9-0.6,1.5-1.4,1.5c-0.8,0-1.4-0.6-1.5-1.5
		c0-0.3,0-0.5,0-0.8c0.2-1.1-0.4-1.8-1.2-2.4c-2.3,1.9-4.9,3-7.9,3.3c0,0.6,0,1.1,0,1.7c0,0.1,0.1,0.3,0.2,0.4
		c0.4,0.4,0.8,0.8,1.2,1.2c0.6,0.6,0.6,1.5,0,2.1c-0.6,0.6-1.5,0.5-2.1-0.1c-0.3-0.3-0.5-0.5-0.9-0.9c-0.3,0.3-0.5,0.7-0.8,0.9
		c-0.6,0.6-1.5,0.7-2.1,0.1c-0.6-0.6-0.5-1.5,0.1-2.1c0.1-0.1,0.3-0.3,0.4-0.4c1.2-1.2,1.2-1.2,1-2.9c-2.9-0.3-5.6-1.4-8-3.3
		c-0.4,0.4-0.8,0.8-1.2,1.2c-0.1,0.1-0.1,0.3-0.1,0.4c0,0.6,0,1.2,0,1.8c0,0.8-0.6,1.4-1.4,1.4c-0.8,0-1.4-0.6-1.5-1.4
		c0-0.4,0-0.8,0-1.3c-0.4,0-0.8,0-1.2,0c-0.9,0-1.6-0.6-1.5-1.4c0-0.8,0.6-1.4,1.5-1.4c0.5,0,1,0,1.6,0c0.3,0,0.6-0.1,0.8-0.3
		c0.3-0.3,0.7-0.6,1-1c-1.9-2.4-3-5-3.3-8c-0.6,0-1.1,0-1.7,0c-0.1,0-0.3,0.1-0.4,0.2c-0.4,0.4-0.8,0.8-1.2,1.2
		c-0.6,0.6-1.5,0.7-2.1,0.1c-0.6-0.6-0.5-1.5,0.1-2.1c0.3-0.3,0.5-0.5,0.9-0.9c-0.3-0.3-0.7-0.5-0.9-0.8c-0.6-0.6-0.6-1.5-0.1-2
		c0.6-0.6,1.5-0.6,2.1,0c0.1,0.1,0.3,0.3,0.4,0.4c1.2,1.2,1.2,1.2,2.9,1c0.3-2.9,1.4-5.6,3.3-8c-0.4-0.4-0.8-0.8-1.2-1.2
		c-0.1-0.1-0.3-0.1-0.4-0.1c-0.6,0-1.2,0-1.8,0c-0.8,0-1.4-0.6-1.4-1.4c0-0.8,0.6-1.4,1.4-1.5c0.4,0,0.8,0,1.2,0c0-0.5,0-0.9,0-1.2
		c0-0.8,0.6-1.5,1.4-1.5c0.8,0,1.4,0.6,1.4,1.5c0,0.2,0,0.5,0,0.7c-0.3,1.2,0.5,2,1.4,2.6c2.3-1.9,5-3,7.9-3.3c0-0.6,0-1.1,0-1.7
		c0-0.1-0.1-0.3-0.2-0.4c-0.4-0.4-0.8-0.8-1.2-1.2c-0.6-0.6-0.6-1.5,0-2.1c0.6-0.6,1.4-0.5,2,0c0.3,0.3,0.5,0.6,0.9,0.9
		c0.3-0.3,0.5-0.6,0.8-0.9c0.6-0.6,1.5-0.7,2.1-0.1c0.6,0.6,0.6,1.5-0.1,2.1c-0.1,0.1-0.3,0.3-0.4,0.4c-1.2,1.2-1.2,1.2-1,2.9
		c2.9,0.3,5.6,1.4,8,3.3c0.4-0.4,0.8-0.8,1.2-1.2c0.1-0.1,0.1-0.3,0.1-0.4c0-0.6,0-1.2,0-1.8c0-0.8,0.6-1.4,1.4-1.4
		c0.8,0,1.4,0.6,1.5,1.4c0,0.4,0,0.8,0,1.3c0.4,0,0.8,0,1.2,0c0.9,0,1.5,0.6,1.5,1.4c0,0.8-0.6,1.4-1.5,1.4c-0.5,0-1,0-1.5,0
		c-0.4,0-0.7,0.1-0.9,0.4c-0.3,0.3-0.6,0.6-0.9,0.9c1.9,2.3,3,5,3.3,8c0.6,0,1.2,0,1.7,0c0.1,0,0.2-0.1,0.3-0.2
		c0.4-0.4,0.8-0.8,1.2-1.2c0.6-0.6,1.5-0.6,2.1,0c0.6,0.6,0.5,1.4-0.1,2c-0.3,0.3-0.6,0.5-0.9,0.9
		C790,667.4,790.3,667.6,790.6,667.9z"/>
	<path class="st6" d="M775.3,665.7c-2.4,0-4.3,1.9-4.3,4.3c0,2.4,1.9,4.3,4.3,4.3c2.4,0,4.3-1.9,4.3-4.3
		C779.5,667.7,777.6,665.7,775.3,665.7z"/>
</g>
<g>
	<path class="st6" d="M754.7,538.1c-2.4,0-4.3,1.9-4.3,4.3c0,2.4,1.9,4.3,4.3,4.3c2.4,0,4.3-1.9,4.3-4.3
		C759,540.1,757.1,538.1,754.7,538.1z"/>
	<path class="st6" d="M752.4,533.6c0-1.9-1.5-3.4-3.3-3.4c-1.8,0-3.3,1.5-3.3,3.3c0,1.8,1.5,3.3,3.3,3.4
		C750.9,537,752.4,535.5,752.4,533.6z"/>
	<path class="st6" d="M743.3,541c-1.3,0-2.4,1.1-2.4,2.4c0,1.3,1,2.4,2.4,2.4c1.3,0,2.4-1.1,2.4-2.4
		C745.7,542.1,744.6,541,743.3,541z"/>
	<path class="st6" d="M749.5,510.2c-16.5,0-29.8,13.4-29.8,29.8s13.4,29.8,29.8,29.8s29.8-13.4,29.8-29.8S766,510.2,749.5,510.2z
		 M770,540.3c0.6,0.6,0.6,1.5,0,2c-0.6,0.6-1.5,0.6-2.1,0c-0.1-0.1-0.3-0.3-0.4-0.4c-1.2-1.2-1.2-1.2-2.9-1c-0.3,2.9-1.4,5.6-3.3,8
		c0.4,0.4,0.7,0.7,1.1,1c0.1,0.1,0.3,0.1,0.4,0.1c0.6,0,1.1,0,1.7,0c0.9,0,1.5,0.6,1.5,1.4c0,0.8-0.6,1.4-1.5,1.4
		c-0.4,0-0.7,0-1.2,0c0,0.4,0,0.8,0,1.2c0,0.9-0.6,1.5-1.4,1.5c-0.8,0-1.4-0.6-1.5-1.5c0-0.3,0-0.5,0-0.8c0.2-1.1-0.4-1.8-1.2-2.4
		c-2.3,1.9-4.9,3-7.9,3.3c0,0.6,0,1.1,0,1.7c0,0.1,0.1,0.3,0.2,0.4c0.4,0.4,0.8,0.8,1.2,1.2c0.6,0.6,0.6,1.5,0,2.1
		c-0.6,0.6-1.5,0.5-2.1-0.1c-0.3-0.3-0.5-0.5-0.9-0.9c-0.3,0.3-0.5,0.7-0.8,0.9c-0.6,0.6-1.5,0.7-2.1,0.1c-0.6-0.6-0.5-1.5,0.1-2.1
		c0.1-0.1,0.3-0.3,0.4-0.4c1.2-1.2,1.2-1.2,1-2.9c-2.9-0.3-5.6-1.4-8-3.3c-0.4,0.4-0.8,0.8-1.2,1.2c-0.1,0.1-0.1,0.3-0.1,0.4
		c0,0.6,0,1.2,0,1.8c0,0.8-0.6,1.4-1.4,1.4c-0.8,0-1.4-0.6-1.5-1.4c0-0.4,0-0.8,0-1.3c-0.4,0-0.8,0-1.2,0c-0.9,0-1.6-0.6-1.5-1.4
		c0-0.8,0.6-1.4,1.5-1.4c0.5,0,1,0,1.6,0c0.3,0,0.6-0.1,0.8-0.3c0.3-0.3,0.7-0.6,1-1c-1.9-2.4-3-5-3.3-8c-0.6,0-1.1,0-1.7,0
		c-0.1,0-0.3,0.1-0.4,0.2c-0.4,0.4-0.8,0.8-1.2,1.2c-0.6,0.6-1.5,0.7-2.1,0.1c-0.6-0.6-0.5-1.5,0.1-2.1c0.3-0.3,0.5-0.5,0.9-0.9
		c-0.3-0.3-0.7-0.5-0.9-0.8c-0.6-0.6-0.6-1.5-0.1-2c0.6-0.6,1.5-0.6,2.1,0c0.1,0.1,0.3,0.3,0.4,0.4c1.2,1.2,1.2,1.2,2.9,1
		c0.3-2.9,1.4-5.6,3.3-8c-0.4-0.4-0.8-0.8-1.2-1.2c-0.1-0.1-0.3-0.1-0.4-0.1c-0.6,0-1.2,0-1.8,0c-0.8,0-1.4-0.6-1.4-1.4
		c0-0.8,0.6-1.4,1.4-1.5c0.4,0,0.8,0,1.2,0c0-0.5,0-0.9,0-1.2c0-0.8,0.6-1.5,1.4-1.5c0.8,0,1.4,0.6,1.4,1.5c0,0.2,0,0.5,0,0.7
		c-0.3,1.2,0.5,2,1.4,2.6c2.3-1.9,5-3,7.9-3.3c0-0.6,0-1.1,0-1.7c0-0.1-0.1-0.3-0.2-0.4c-0.4-0.4-0.8-0.8-1.2-1.2
		c-0.6-0.6-0.6-1.5,0-2.1c0.6-0.6,1.4-0.5,2,0c0.3,0.3,0.5,0.6,0.9,0.9c0.3-0.3,0.5-0.6,0.8-0.9c0.6-0.6,1.5-0.7,2.1-0.1
		c0.6,0.6,0.6,1.5-0.1,2.1c-0.1,0.1-0.3,0.3-0.4,0.4c-1.2,1.2-1.2,1.2-1,2.9c2.9,0.3,5.6,1.4,8,3.3c0.4-0.4,0.8-0.8,1.2-1.2
		c0.1-0.1,0.1-0.3,0.1-0.4c0-0.6,0-1.2,0-1.8c0-0.8,0.6-1.4,1.4-1.4c0.8,0,1.4,0.6,1.5,1.4c0,0.4,0,0.8,0,1.3c0.4,0,0.8,0,1.2,0
		c0.9,0,1.5,0.6,1.5,1.4c0,0.8-0.6,1.4-1.5,1.4c-0.5,0-1,0-1.5,0c-0.4,0-0.7,0.1-0.9,0.4c-0.3,0.3-0.6,0.6-0.9,0.9
		c1.9,2.3,3,5,3.3,8c0.6,0,1.2,0,1.7,0c0.1,0,0.2-0.1,0.3-0.2c0.4-0.4,0.8-0.8,1.2-1.2c0.6-0.6,1.5-0.6,2.1,0c0.6,0.6,0.5,1.4-0.1,2
		c-0.3,0.3-0.6,0.5-0.9,0.9C769.4,539.8,769.7,540,770,540.3z"/>
</g>
<path class="st7" d="M1145.7,730.4c-10.5-17.1-32.9-22.4-50-11.9c-17.1,10.5-22.4,32.9-11.9,50c10.5,17.1,32.9,22.4,50,11.9
	C1150.9,769.9,1156.2,747.5,1145.7,730.4z M1110.9,725.3c3.6,0.8,7.1,1.7,10.7,2.5c2.7,0.6,5.3,1.3,8,1.9c1.7,0.4,2.3,2,1.3,3.3
	c-0.1,0.2-0.3,0.3-0.4,0.4c-0.6,0.4-1.2,0.4-1.7,0.3c-6.3-1.5-12.6-3-18.8-4.5c-1.2-0.3-1.8-1.3-1.5-2.4
	C1108.7,725.7,1109.6,725,1110.9,725.3z M1124.6,737.3c0.7,0.2,1.3,0.4,1.5,0.7c0.6,1,0.6,1.7,0.2,2.5c-0.4,0.7-1.1,1-1.9,0.9
	c-0.3,0-0.6-0.1-0.8-0.2c-4.1-1-8.3-2-12.4-3c-0.4-0.1-0.8-0.2-1.1-0.4c-0.9-0.4-1.2-1.4-0.9-2.4c0.3-1,1.2-1.6,2.2-1.4
	c0.8,0.1,1.5,0.3,2.2,0.5C1117.2,735.6,1120.9,736.4,1124.6,737.3z M1119.1,774.4c-6.3-1.5-12.5-3-18.8-4.5
	c-1.3-0.3-1.9-1.3-1.6-2.5c0.3-1.2,1.3-1.7,2.6-1.4c6.2,1.5,12.4,2.9,18.6,4.4c0.9,0.2,1.6,0.7,1.8,1.7c0.1,0.9-0.2,1.6-0.8,2
	C1120.3,774.5,1119.7,774.6,1119.1,774.4z M1105.3,762.5c-0.7-0.2-1.3-0.4-1.7-1.1c-0.3-0.6-0.4-1.3,0-2c0.4-0.7,1-1,1.8-1
	c0.3,0,0.7,0.1,1,0.2c4.1,1,8.3,2,12.4,3c0.1,0,0.3,0.1,0.4,0.1c1.3,0.4,1.9,1.3,1.6,2.5c-0.3,1.2-1.3,1.7-2.6,1.4
	C1113.9,764.6,1109.6,763.6,1105.3,762.5z M1122.9,780.3c0-0.3,0.1-0.6,0.2-0.9c0.8-3.7,1.2-7.3,0.8-11.1c-0.7-6.7-4-11.9-9.3-15.9
	c-0.3-0.3-0.7-0.3-1.1-0.2c-7.8,1.4-13.5,5.6-16.9,12.8c-1.1,2.3-2,4.7-2.6,7.2c-0.1,0.3-0.2,0.6-0.3,1c-0.4,1.2-1.4,1.8-2.6,1.4
	c-1.1-0.3-1.6-1.3-1.3-2.5c0.5-2.1,1.2-4.2,2-6.2c1.8-4.5,4.3-8.5,7.9-11.7c2.6-2.3,5.6-3.9,8.9-5c0.2-0.1,0.3-0.1,0.5-0.2
	c0.6-0.1,0.7-0.4,0.2-0.8c-1.1-1-2.1-2.2-3.1-3.4c-2.6-3.4-4.1-7.2-4.8-11.5c-0.7-4.9-0.2-9.7,0.9-14.4c0.3-1.3,1.2-1.9,2.4-1.6
	c1.1,0.2,1.8,1.2,1.6,2.4c-0.6,2.8-1.1,5.6-1.1,8.5c-0.1,4.6,0.9,8.9,3.4,12.8c1.6,2.5,3.7,4.6,6,6.4c0.3,0.2,0.5,0.3,0.8,0.3
	c3.7-0.6,7.1-1.8,10.1-4.1c3.2-2.3,5.4-5.4,7.1-8.9c1.2-2.4,2-5,2.6-7.6c0.5-1.9,1.6-2.4,3.4-1.6c0.2,0.4,0.5,0.8,0.7,1.2
	c0.1,1.1-0.4,2.2-0.7,3.2c-1.3,4.6-3.2,8.8-6.1,12.6c-3.2,4-7.3,6.8-12.2,8.3c-0.3,0.1-0.8,0.1-0.9,0.4c-0.1,0.3,0.4,0.5,0.6,0.8
	c5.2,5.1,7.6,11.2,7.8,18.4c0.1,3.5-0.4,7-1.1,10.4c-0.1,0.5-0.3,0.9-0.5,1.3c-0.3,0.2-0.5,0.3-0.8,0.5
	C1123.8,782.8,1122.7,781.9,1122.9,780.3z"/>
<g>
	<path class="st8" d="M1620,596.7c-1.8,0-3.3,1.5-3.3,3.3c0,1.9,1.5,3.3,3.4,3.3c1.8,0,3.3-1.5,3.3-3.3
		C1623.3,598.2,1621.8,596.7,1620,596.7z"/>
	<path class="st8" d="M1615,605.1c-0.9,0-1.7,0.8-1.7,1.7c0,0.9,0.7,1.6,1.6,1.7c0.9,0,1.7-0.7,1.7-1.6
		C1616.6,605.8,1615.9,605.1,1615,605.1z"/>
	<path class="st8" d="M1615.6,593.3c2,0,4.1,0,6.1,0c2,0,4.1,0,6.1,0c0.1,0,0.2,0,0.2,0c0-0.1,0-0.1-0.1-0.2c-0.9-1.3-1.8-2.7-2.7-4
		c-0.1-0.2-0.2-0.4-0.2-0.6c0-3.9,0-7.7,0-11.6c0-0.3,0-0.3-0.3-0.3c-2,0-4,0-6,0c0,0-0.1,0-0.1,0c-0.2,0-0.3,0.1-0.3,0.3
		c0,0.1,0,0.2,0,0.2c0,3.8,0,7.6,0,11.4c0,0.3-0.1,0.5-0.2,0.8c-0.9,1.3-1.8,2.6-2.7,3.9c0,0.1-0.1,0.1-0.1,0.2
		C1615.4,593.3,1615.5,593.3,1615.6,593.3z"/>
	<path class="st8" d="M1626.7,603.4c-1.8,0-3.3,1.5-3.3,3.3c0,1.8,1.5,3.3,3.3,3.3c1.8,0,3.3-1.5,3.3-3.3
		C1630.1,604.9,1628.6,603.4,1626.7,603.4z"/>
	<path class="st8" d="M1622.3,563.1c-18.4,0-33.3,14.9-33.3,33.3s14.9,33.3,33.3,33.3s33.3-14.9,33.3-33.3
		S1640.7,563.1,1622.3,563.1z M1638.5,610.4c0,0.2,0,0.4-0.1,0.6c-0.2,1.7-1.1,2.9-2.6,3.6c-0.6,0.3-1.3,0.4-1.9,0.6
		c-8.2,0-16.4,0-24.5,0c-0.4-0.1-0.7-0.1-1.1-0.2c-2.8-0.8-3.7-3.1-3.4-5.4c0.1-0.8,0.3-1.5,0.6-2.3c0.8-2.2,2-4.3,3.1-6.4
		c2.4-4.2,5-8.3,7.7-12.2c0.2-0.2,0.2-0.4,0.2-0.7c0-1.9,0-3.9,0-5.8c0-1.7,0-3.5,0-5.2c0-0.3,0-0.3-0.3-0.3c-0.4,0-0.8,0-1.2,0
		c-0.2,0-0.2-0.1-0.2-0.2c0-0.4,0-0.8,0-1.2c0-0.3,0-0.3,0.4-0.3c3.7,0,7.4,0,11.1,0c0.6,0,1.2,0,1.8,0c0.2,0,0.2,0,0.2,0.2
		c0,0.4,0,0.9,0,1.3c0,0.2-0.1,0.2-0.2,0.2c-0.4,0-0.8,0-1.2,0c-0.3,0-0.3,0-0.3,0.3c0,3.7,0,7.5,0,11.2c0,0.2,0,0.3,0.1,0.5
		c1.5,2.1,2.9,4.3,4.3,6.5c1.9,3,3.7,6,5.2,9.1c0.9,1.8,1.8,3.7,2.1,5.8C1638.5,610.1,1638.5,610.2,1638.5,610.4z"/>
</g>
</svg>
