<?xml version="1.0" encoding="utf-8"?>
<!-- Generator: Adobe Illustrator 27.2.0, SVG Export Plug-In . SVG Version: 6.00 Build 0)  -->
<svg version="1.1" id="Layer_1" xmlns="http://www.w3.org/2000/svg" xmlns:xlink="http://www.w3.org/1999/xlink" x="0px" y="0px"
	 viewBox="0 0 1920 1080" style="enable-background:new 0 0 1920 1080;" xml:space="preserve">
<style type="text/css">
	.st0{fill:none;stroke:#919191;stroke-width:2;stroke-miterlimit:10;}
	.st1{fill:#93278F;}
	.st2{fill:#2A7FE2;}
	.st3{fill:#9E005D;}
	.st4{fill:#8CC63F;}
	.st5{fill:#00A99D;}
	.st6{fill:#FBB03B;}
	.st7{fill:#79C46C;}
	.st8{fill:#C94B9C;}
	.st9{fill:#B76C6C;}
	.st10{fill:#673789;}
	.st11{fill:#6460C6;}
	.st12{fill:#919191;}
</style>
<g>
	<line class="st0" x1="224.7" y1="596.5" x2="507.2" y2="867.3"/>
</g>
<line class="st0" x1="638.9" y1="419.2" x2="507.2" y2="867.3"/>
<line class="st0" x1="770.5" y1="667" x2="507.2" y2="867.3"/>
<line class="st0" x1="1114.7" y1="749.5" x2="638.9" y2="419.2"/>
<line class="st0" x1="770.5" y1="667" x2="1114.7" y2="749.5"/>
<line class="st0" x1="1369.2" y1="810.4" x2="1114.7" y2="749.5"/>
<line class="st0" x1="1622.3" y1="596.5" x2="1369.2" y2="810.4"/>
<line class="st0" x1="1052.6" y1="388.9" x2="1622.3" y2="596.5"/>
<line class="st0" x1="1328.3" y1="269.2" x2="1622.3" y2="596.5"/>
<circle class="st1" cx="638.9" cy="419.2" r="26.7"/>
<circle class="st1" cx="770.5" cy="667" r="30"/>
<circle class="st2" cx="1114.7" cy="749.5" r="36.4"/>
<circle class="st3" cx="1369.2" cy="810.4" r="21"/>
<circle class="st4" cx="1052.6" cy="388.9" r="30.3"/>
<circle class="st5" cx="1328.3" cy="269.2" r="40.9"/>
<circle class="st6" cx="1622.3" cy="596.5" r="33.3"/>
<circle class="st7" cx="224.7" cy="596.5" r="37.9"/>
<circle class="st8" cx="507.2" cy="867.3" r="37.8"/>
<line class="st0" x1="224.7" y1="596.5" x2="450.1" y2="288.4"/>
<line class="st0" x1="186.9" y1="310.1" x2="224.7" y2="596.5"/>
<line class="st0" x1="1197.1" y1="984.7" x2="1114.7" y2="749.5"/>
<line class="st0" x1="1751.3" y1="388.9" x2="1622.3" y2="596.5"/>
<line class="st0" x1="1529" y1="174" x2="1328.3" y2="269.2"/>
<line class="st0" x1="1377" y1="95.5" x2="1328.3" y2="269.2"/>
<line class="st0" x1="971.6" y1="952" x2="1114.7" y2="749.5"/>
<circle class="st9" cx="186.9" cy="310.1" r="22.7"/>
<circle class="st9" cx="450.1" cy="288.4" r="28.6"/>
<circle class="st10" cx="971.6" cy="952" r="29.4"/>
<circle class="st10" cx="1197.1" cy="984.7" r="31.1"/>
<circle class="st11" cx="1377" cy="95.5" r="26.2"/>
<circle class="st11" cx="1529" cy="174" r="27"/>
<circle class="st12" cx="1751.3" cy="388.9" r="31.1"/>
</svg>
